<?xml version="1.0" encoding="UTF-8"?>
<svg width="20px" height="20px" viewBox="0 0 31 32" version="1.1" xmlns="http://www.w3.org/2000/svg" xmlns:xlink="http://www.w3.org/1999/xlink">
    <!-- Generator: Sketch 47.1 (45422) - http://www.bohemiancoding.com/sketch -->
    <title>Shape</title>
    <defs></defs>
    <g id="Page-1" stroke="none" stroke-width="1" fill="none" fill-rule="evenodd" stroke-linecap="round" stroke-linejoin="round">
        <g id="Desktop" transform="translate(-180.000000, -695.000000)" stroke="#000000" stroke-width="2">
            <path d="M209.999089,718.625822 L209.999089,723.000154 C210.002422,723.821282 209.65942,724.605765 209.054347,725.160878 C208.449275,725.71599 207.63821,725.990285 206.820408,725.916376 C202.333558,725.428843 198.023624,723.895645 194.236911,721.439976 C190.713864,719.201285 187.726936,716.214357 185.488246,712.69131 C183.024006,708.887397 181.49046,704.556502 181.011845,700.049489 C180.938172,699.234219 181.210545,698.425522 181.762431,697.820943 C182.314317,697.216365 183.094894,696.871578 183.913486,696.870808 L188.287819,696.870808 C189.751564,696.856401 190.999177,697.929349 191.20404,699.378758 C191.388671,700.778642 191.731074,702.153145 192.224718,703.47605 C192.625312,704.541747 192.369093,705.74313 191.568568,706.552664 L189.716767,708.404465 C191.792469,712.054912 194.814985,715.077428 198.465432,717.15313 L200.317233,715.301329 C201.126767,714.500804 202.32815,714.244585 203.393847,714.645179 C204.716752,715.138823 206.091255,715.481226 207.491139,715.665857 C208.957361,715.872705 210.035819,717.145537 209.999089,718.625822 Z" id="Shape"></path>
        </g>
    </g>
</svg>